<?xml version="1.0" encoding="UTF-8" standalone="no"?>
<svg
   xmlns:dc="http://purl.org/dc/elements/1.1/"
   xmlns:cc="http://creativecommons.org/ns#"
   xmlns:rdf="http://www.w3.org/1999/02/22-rdf-syntax-ns#"
   xmlns:svg="http://www.w3.org/2000/svg"
   xmlns="http://www.w3.org/2000/svg"
   xmlns:sodipodi="http://sodipodi.sourceforge.net/DTD/sodipodi-0.dtd"
   xmlns:inkscape="http://www.inkscape.org/namespaces/inkscape"
   viewBox="0 0 511.84021 615.5205"
   version="1.1"
   id="svg16"
   sodipodi:docname="give.svg"
   width="31.990013pc"
   height="38.470032pc"
   inkscape:version="0.92.4 5da689c313, 2019-01-14">
  <metadata
     id="metadata22">
    <rdf:RDF>
      <cc:Work
         rdf:about="">
        <dc:format>image/svg+xml</dc:format>
        <dc:type
           rdf:resource="http://purl.org/dc/dcmitype/StillImage" />
        <dc:title></dc:title>
      </cc:Work>
    </rdf:RDF>
  </metadata>
  <defs
     id="defs20" />
  <sodipodi:namedview
     pagecolor="#ffffff"
     bordercolor="#666666"
     borderopacity="1"
     objecttolerance="10"
     gridtolerance="10"
     guidetolerance="10"
     inkscape:pageopacity="0"
     inkscape:pageshadow="2"
     inkscape:window-width="2098"
     inkscape:window-height="1426"
     id="namedview18"
     showgrid="false"
     fit-margin-top="0"
     fit-margin-left="0"
     fit-margin-right="0"
     fit-margin-bottom="0"
     units="pc"
     inkscape:zoom="0.97035431"
     inkscape:cx="88.57928"
     inkscape:cy="297.22081"
     inkscape:window-x="199"
     inkscape:window-y="341"
     inkscape:window-maximized="0"
     inkscape:current-layer="svg16" />
  <path
     d="m 490.70215,333.61507 c -12.60546,-10.62109 -31.40625,-9.07031 -42.08984,3.54297 l -68.37891,70.28125 h 0.0703 c -3.69922,-12.71094 -15.44141,-21.9961 -29.33985,-21.9961 h -113.25 c -14.69531,-6.42578 -30.9414,-9.99609 -48.01562,-9.99609 -47.3086,0 -88.21875,22.93359 -107.753913,66.39063 l 90.398443,89.9375 0.16797,-0.13282 15.5664,-15.01562 c 7.44922,-7.19531 17.40625,-11.21485 27.76172,-11.21485 h 133.23828 c 20.7461,0 40.67579,-8.09375 55.54688,-22.5664 L 494.2451,375.70101 c 10.64063,-12.58985 9.0586,-31.4336 -3.54297,-42.08594 z m 0,0"
     id="path2"
     inkscape:connector-curvature="0"
     style="fill:#fed2a4" />
  <path
     d="M 170.41309,557.82601 121.99512,605.52523 9.7451166,492.41585 57.303717,444.71663 c 7.80468,-7.80468 20.47265,-7.80859 28.28125,0 l 84.828123,84.82813 c 7.85547,7.85547 7.76172,20.51953 0,28.28125 z m 0,0"
     id="path6"
     inkscape:connector-curvature="0"
     style="fill:#e87288" />
  <path
     d="m 235.292,450.78694 c 3.90234,-3.91015 3.90234,-10.23828 0,-14.14843 -3.90625,-3.89844 -10.23438,-3.89844 -14.14453,0 -3.89844,3.91015 -3.89844,10.23828 0,14.14843 3.91015,3.89844 10.23828,3.89844 14.14453,0 z m 0,0"
     id="path8"
     inkscape:connector-curvature="0" />
  <path
     d="m 115.15137,612.56429 c 3.875,3.90625 10.1836,3.94922 14.10938,0.082 l 48.46875,-47.75 c 8.23437,-8.23438 10.73828,-20.42578 7.11719,-31.02344 l 10.42578,-10.05469 c 5.61328,-5.42187 13.0039,-8.41015 20.8164,-8.41015 h 132.90235 c 23.57812,0 45.86328,-9.05469 62.75781,-25.4961 0.69531,-0.67578 -5.27734,6.35938 90.66797,-108.3125 14.23047,-16.83593 12.10156,-42.11718 -4.75,-56.36328 -16.7461,-14.11328 -41.83203,-12.08593 -56.10156,4.46094 l -58.99219,60.63281 c -7.44922,-9.16797 -18.8086,-14.88281 -31.08203,-14.88281 H 240.01075 c -15.86328,-6.63672 -32.69531,-9.99609 -50.0625,-9.99609 -48.14063,0 -90.175783,22.23437 -112.734383,63.92187 -9.5039,-1.80078 -19.52734,1.07422 -26.73828,8.28516 L 2.9169966,485.35726 c -3.88280996,3.89453 -3.89062996,10.19531 -0.0156,14.10156 z m 74.79297,-227.1211 c 15.3125,0 30.11719,3.08204 44.01172,9.16016 1.26563,0.55469 2.62891,0.83985 4.00781,0.83985 h 113.52735 c 10.83984,0 19.99609,8.83984 19.99609,19.99218 0,11.02735 -8.96875,19.9961 -19.99609,19.9961 h -81.56641 c -5.51953,0 -9.99609,4.47656 -9.99609,9.99609 0,5.52344 4.47656,9.99609 9.99609,9.99609 h 81.56641 c 22.05078,0 39.98828,-17.9375 39.98828,-39.98828 0,-1.75781 -0.125,-3.5 -0.35156,-5.22656 57.0664,-58.66016 65.11328,-66.90234 65.45703,-67.3125 7.125,-8.41016 19.77344,-9.47656 28.1875,-2.38281 8.42187,7.12109 9.48828,19.76172 2.34375,28.21875 l -89.66797,107.19531 c -13.09375,12.57031 -30.28516,19.48828 -48.45703,19.48828 H 216.08887 c -13.02343,0 -25.35156,4.98047 -34.70312,14.01563 l -8.49609,8.19921 -78.320321,-78.3164 c 18.304691,-34.33985 52.652351,-53.8711 95.375001,-53.8711 z M 64.624027,451.78694 c 3.29687,-3.29687 8.35937,-3.89062 12.37891,-1.40625 1.73046,1.05469 -3.23829,-3.46875 86.589843,86.23438 3.99609,3.99609 3.78125,10.36328 0.0547,14.08984 l -41.32031,40.70703 -98.230473,-98.98046 z m 0,0"
     id="path12"
     inkscape:connector-curvature="0" />
  <g
     id="g3801"
     transform="matrix(0.8714612,0,0,0.8714612,190.89859,0)">
    <polygon
       style="fill:#343434"
       points="127.9611,287.958 255.9231,212.32 127.9611,0 125.1661,9.5 125.1661,285.168 "
       id="polygon3789" />
    <polygon
       style="fill:#8c8c8c"
       points="127.962,287.959 127.962,154.158 127.962,0 0,212.32 "
       id="polygon3791" />
    <polygon
       style="fill:#3c3c3b"
       points="127.9611,416.9066 255.9991,236.5866 127.9611,312.1866 126.3861,314.1066 126.3861,412.3056 "
       id="polygon3793" />
    <polygon
       style="fill:#8c8c8c"
       points="127.962,416.9052 127.962,312.1852 0,236.5852 "
       id="polygon3795" />
    <polygon
       style="fill:#141414"
       points="127.9611,287.9577 255.9211,212.3207 127.9611,154.1587 "
       id="polygon3797" />
    <polygon
       style="fill:#393939"
       points="0.0009,212.3208 127.9609,287.9578 127.9609,154.1588 "
       id="polygon3799" />
  </g>
</svg>
